<svg width="32" height="43" viewBox="0 0 32 43" fill="none" xmlns="http://www.w3.org/2000/svg">
<path d="M16 0C7.17333 0 0 7.43832 0 16.5911C0 22.1767 3.12 26.8499 6.74667 30.1128C7.89333 31.1359 9.89333 32.7673 11.68 35.173C13.6533 37.8553 15.44 40.731 16 42.6667C16.56 40.731 18.3467 37.8553 20.32 35.173C22.1067 32.7673 24.1067 31.1359 25.2533 30.1128C28.88 26.8499 32 22.1767 32 16.5911C32 7.43832 24.8267 0 16 0Z" fill="#F42727"/>
<rect x="7.11133" y="7.11108" width="17.7778" height="17.7778" rx="5" fill="white"/>
<path d="M14.0781 12.4441L15.7865 15.285H15.8471L17.563 12.4441H19.1653L16.7751 16.3229L19.2031 20.2017H17.5744L15.8471 17.3797H15.7865L14.0592 20.2017H12.438L14.8887 16.3229L12.4683 12.4441H14.0781Z" fill="#F42727"/>
</svg>
