<svg width="14" height="13" viewBox="0 0 14 13" fill="none" xmlns="http://www.w3.org/2000/svg">
<path d="M7.02602 10.2435C7.20524 10.2435 7.35768 10.1806 7.48335 10.0549C7.60902 9.92896 7.67185 9.77635 7.67185 9.59702C7.67185 9.41779 7.60891 9.26535 7.48302 9.13968C7.35713 9.01413 7.20457 8.95135 7.02535 8.95135C6.84613 8.95135 6.69368 9.01429 6.56802 9.14018C6.44235 9.26607 6.37952 9.41863 6.37952 9.59785C6.37952 9.77707 6.44246 9.92952 6.56835 10.0552C6.69424 10.1807 6.84679 10.2435 7.02602 10.2435ZM6.55385 7.87302H7.47568C7.48424 7.50046 7.52674 7.23552 7.60318 7.07818C7.67974 6.92096 7.83124 6.73041 8.05768 6.50652C8.45091 6.12441 8.71713 5.80641 8.85635 5.55252C8.99568 5.29874 9.06535 5.02502 9.06535 4.73135C9.06535 4.16857 8.87863 3.70085 8.50518 3.32818C8.13163 2.95563 7.65213 2.76935 7.06668 2.76935C6.57691 2.76935 6.13868 2.90118 5.75202 3.16485C5.36524 3.42852 5.08852 3.78385 4.92185 4.23085L5.76152 4.59102C5.88718 4.25857 6.0594 4.01796 6.27818 3.86918C6.49696 3.72052 6.74441 3.64618 7.02052 3.64618C7.37007 3.64618 7.65018 3.74574 7.86085 3.94485C8.07163 4.14407 8.17702 4.4009 8.17702 4.71535C8.17702 4.97524 8.09302 5.20196 7.92502 5.39552C7.75713 5.58907 7.56763 5.78457 7.35652 5.98202C7.01885 6.29913 6.80068 6.57802 6.70202 6.81868C6.60324 7.05924 6.55385 7.41068 6.55385 7.87302ZM7.00118 12.5667C6.16963 12.5667 5.38513 12.4088 4.64768 12.093C3.91024 11.7772 3.26479 11.3427 2.71135 10.7895C2.1579 10.2363 1.72318 9.59113 1.40718 8.85402C1.09129 8.1169 0.93335 7.33263 0.93335 6.50118C0.93335 5.65852 1.09124 4.87124 1.40702 4.13935C1.72279 3.40746 2.15729 2.76479 2.71052 2.21135C3.26374 1.6579 3.90891 1.22318 4.64602 0.907183C5.38313 0.591294 6.1674 0.43335 6.99885 0.43335C7.84152 0.43335 8.62879 0.591238 9.36068 0.907016C10.0926 1.22279 10.7352 1.65729 11.2887 2.21052C11.8421 2.76374 12.2768 3.40613 12.5928 4.13768C12.9087 4.86924 13.0667 5.65629 13.0667 6.49885C13.0667 7.3304 12.9088 8.1149 12.593 8.85235C12.2772 9.58979 11.8427 10.2352 11.2895 10.7887C10.7363 11.3421 10.0939 11.7768 9.36235 12.0928C8.63079 12.4087 7.84374 12.5667 7.00118 12.5667Z" fill="#878682"/>
</svg>
