<svg width="22" height="23" viewBox="0 0 22 23" fill="none" xmlns="http://www.w3.org/2000/svg">
<path d="M10.8263 5.92322L10.8264 5.92331C11.5834 6.68004 12.7298 7.2458 13.8992 7.625C12.7299 8.00436 11.5834 8.56996 10.8267 9.32669L10.8266 9.32676C10.07 10.0837 9.5044 11.2302 9.12527 12.3997C8.74587 11.2304 8.18011 10.084 7.42342 9.32736C6.66664 8.57029 5.52024 8.00464 4.35073 7.62554C5.51996 7.2461 6.66639 6.68041 7.42307 5.92397L7.42311 5.92393C8.1801 5.16695 8.74555 4.02048 9.12475 2.85102C9.50396 4.02023 10.0697 5.16634 10.8263 5.92322Z" stroke="#2C958C" stroke-width="0.7"/>
<path d="M17.0809 13.6358L17.0807 13.6357C16.6923 13.2471 16.3882 12.6999 16.1638 12.1214C15.9397 12.6998 15.6359 13.2472 15.2471 13.636L15.2469 13.6362C14.8581 14.0246 14.3108 14.3286 13.7323 14.553C14.3108 14.7771 14.8581 15.0811 15.247 15.47L17.0809 13.6358ZM17.0809 13.6358C17.4698 14.0245 18.0172 14.3285 18.5956 14.5527C18.0172 14.777 17.4698 15.081 17.0811 15.4698L17.081 15.4699C16.6924 15.8587 16.3884 16.4059 16.1642 16.9843M17.0809 13.6358L16.1642 16.9843M16.1642 16.9843C15.94 16.406 15.6359 15.8587 15.2471 15.4701L16.1642 16.9843Z" stroke="#2C958C" stroke-width="0.7"/>
<path d="M6.39838 17.6977L6.39831 17.6978C6.09472 18.0012 5.68026 18.2432 5.23752 18.4278C5.6802 18.6123 6.09471 18.8541 6.39837 19.158C6.3984 19.158 6.39843 19.158 6.39846 19.1581C6.39847 19.1581 6.39847 19.1581 6.39848 19.1581C6.70202 19.4616 6.94405 19.8759 7.1287 20.3185M6.39838 17.6977L7.1287 20.3185M6.39838 17.6977C6.702 17.3941 6.94384 16.9796 7.12831 16.5369M6.39838 17.6977L7.12831 16.5369M7.1287 20.3185C7.05938 20.4848 6.99816 20.6551 6.94482 20.825C7.01986 21.0493 7.08133 21.2778 7.12887 21.4999C7.17637 21.2778 7.23776 21.0493 7.31273 20.825C7.25934 20.655 7.19807 20.4848 7.1287 20.3185ZM7.12831 16.5369C7.31297 16.9796 7.55502 17.394 7.85852 17.6974L7.12831 16.5369ZM9.52586 18.6114C9.75002 18.5363 9.97837 18.4748 10.2003 18.4272C9.97835 18.3798 9.74998 18.3184 9.52578 18.2434C9.35591 18.2969 9.18562 18.3581 9.01932 18.4275C9.18565 18.4968 9.35595 18.558 9.52586 18.6114ZM7.85859 17.6975L8.10602 17.4499L7.85859 17.6975ZM8.10633 19.4052L7.85881 19.1577C7.85879 19.1577 7.85878 19.1577 7.85876 19.1577L8.10633 19.4052ZM4.05664 18.4279C4.27854 18.4755 4.50685 18.5369 4.73098 18.6118L4.05664 18.4279Z" stroke="#2C958C" stroke-width="0.7"/>
</svg>
