<svg width="14" height="15" viewBox="0 0 14 15" fill="none" xmlns="http://www.w3.org/2000/svg">
<path d="M7.01744 10.898C6.91269 10.8985 6.8089 10.8781 6.71215 10.8379C6.61541 10.7978 6.52766 10.7387 6.45405 10.6642L1.13907 5.34919C1.03306 5.1941 0.985221 5.00656 1.00399 4.81964C1.02276 4.63273 1.10693 4.45844 1.24166 4.32753C1.37639 4.19661 1.55301 4.11748 1.74039 4.10408C1.92777 4.09068 2.11386 4.14389 2.26584 4.2543L7.01744 8.97401L11.769 4.2543C11.9189 4.15715 12.097 4.11312 12.2748 4.12927C12.4527 4.14541 12.6199 4.22079 12.7498 4.34334C12.8797 4.46588 12.9647 4.62848 12.9912 4.80508C13.0177 4.98168 12.9841 5.16206 12.8958 5.3173L7.58083 10.6323C7.50996 10.7126 7.42344 10.7776 7.32656 10.8233C7.22968 10.869 7.12449 10.8944 7.01744 10.898Z" fill="#6B7280"/>
</svg>
