<svg width="24" height="25" viewBox="0 0 24 25" fill="none" xmlns="http://www.w3.org/2000/svg">
<mask id="mask0_40004072_26983" style="mask-type:alpha" maskUnits="userSpaceOnUse" x="0" y="0" width="24" height="25">
<rect y="0.5" width="24" height="24" fill="#D9D9D9"/>
</mask>
<g mask="url(#mask0_40004072_26983)">
<path d="M7.72118 19.95C6.09301 19.95 4.70168 19.3888 3.54718 18.2663C2.39268 17.1439 1.81543 15.7718 1.81543 14.15C1.81543 12.4448 2.45518 11.0327 3.73468 9.91351C5.01418 8.79435 6.52568 8.2636 8.26918 8.32126H8.71918L7.20393 6.83476L8.13268 5.90576L11.2269 9.00001L8.13268 12.0943L7.20393 11.175L8.80193 9.60201H8.32693C6.92943 9.52501 5.71143 9.9256 4.67293 10.8038C3.6346 11.6821 3.11543 12.7975 3.11543 14.15C3.11543 15.4128 3.56568 16.4785 4.46618 17.347C5.36685 18.2157 6.45501 18.65 7.73068 18.65H11.1499V19.95H7.72118ZM13.4499 11.9538V6.55001H21.0999V11.9538H13.4499ZM13.4499 19.95V14.5463H21.0999V19.95H13.4499ZM14.7499 18.65H19.7999V15.846H14.7499V18.65Z" fill="#2C958C"/>
</g>
</svg>
