<svg width="20" height="21" viewBox="0 0 20 21" fill="none" xmlns="http://www.w3.org/2000/svg">
<path fill-rule="evenodd" clip-rule="evenodd" d="M10 20.5C15.5228 20.5 20 16.0228 20 10.5C20 4.97715 15.5228 0.5 10 0.5C4.47715 0.5 0 4.97715 0 10.5C0 16.0228 4.47715 20.5 10 20.5ZM14.1509 6.60523C13.6487 6.27499 12.9726 6.42896 12.6629 6.9441L9.34337 12.4653L7.26306 10.1949C6.85221 9.7465 6.15029 9.73157 5.72075 10.1621C5.31758 10.5662 5.30378 11.216 5.68943 11.6368L8.66223 14.8809C9.17414 15.4395 10.0794 15.3485 10.4698 14.6991L14.4764 8.03442C14.7689 7.54785 14.6253 6.91714 14.1509 6.60523Z" fill="#2C958C"/>
</svg>
