<svg width="15" height="14" viewBox="0 0 15 14" fill="none" xmlns="http://www.w3.org/2000/svg">
<path d="M13.5 9.6128C13.5005 9.71579 13.4804 9.81785 13.4409 9.91297C13.4014 10.0081 13.3433 10.0944 13.2701 10.1667C13.1231 10.3135 12.9238 10.396 12.7161 10.396C12.5084 10.396 12.3091 10.3135 12.1622 10.1667L7.49022 5.4948L2.81827 10.1667C2.66968 10.3052 2.47313 10.3806 2.27005 10.377C2.06698 10.3734 1.87322 10.2912 1.72959 10.1475C1.58597 10.0039 1.50371 9.81016 1.50012 9.60708C1.49654 9.404 1.57192 9.20746 1.71039 9.05886L6.93628 3.83297C7.08325 3.68617 7.28249 3.60372 7.49022 3.60372C7.69795 3.60372 7.89718 3.68617 8.04416 3.83297L13.2701 9.05886C13.3433 9.13123 13.4014 9.21751 13.4409 9.31263C13.4804 9.40776 13.5005 9.50981 13.5 9.6128Z" fill="#878682"/>
</svg>
