<svg width="16" height="18" viewBox="0 0 16 18" fill="none" xmlns="http://www.w3.org/2000/svg">
<path d="M3.30726 17.1631C2.8086 17.1631 2.3826 16.9865 2.02926 16.6333C1.6761 16.28 1.49951 15.854 1.49951 15.3553V2.66306H0.499512V1.16306H4.99951V0.278564H10.9995V1.16306H15.4995V2.66306H14.4995V15.3553C14.4995 15.8605 14.3245 16.2881 13.9745 16.6381C13.6245 16.9881 13.1969 17.1631 12.6918 17.1631H3.30726ZM12.9995 2.66306H2.99951V15.3553C2.99951 15.4451 3.02835 15.5189 3.08601 15.5766C3.14368 15.6342 3.21743 15.6631 3.30726 15.6631H12.6918C12.7688 15.6631 12.8393 15.631 12.9033 15.5668C12.9674 15.5028 12.9995 15.4323 12.9995 15.3553V2.66306ZM5.40351 13.6631H6.90326V4.66306H5.40351V13.6631ZM9.09576 13.6631H10.5955V4.66306H9.09576V13.6631Z" fill="#D83A52"/>
</svg>
